<svg xmlns="http://www.w3.org/2000/svg" viewBox="0 0 572.55 153.3"><defs><style>.cls-1{fill:#f58b6f;}.cls-2{fill:#a7cbe1;}.cls-3{fill:#4e5a74;}</style></defs><title>Fichier 2</title><g id="Calque_2" data-name="Calque 2"><g id="Layer_1" data-name="Layer 1"><g id="_Groupe_" data-name="&lt;Groupe&gt;"><g id="_Groupe_2" data-name="&lt;Groupe&gt;"><g id="_Groupe_3" data-name="&lt;Groupe&gt;"><g id="_Groupe_4" data-name="&lt;Groupe&gt;"><path id="_Tracé_" data-name="&lt;Tracé&gt;" class="cls-1" d="M104.47,103.73a1.64,1.64,0,0,1-1.64-1.64,14.36,14.36,0,0,0-1.15-5.65,1.64,1.64,0,1,1,3-1.28,17.63,17.63,0,0,1,1.41,6.94A1.64,1.64,0,0,1,104.47,103.73Z"/></g></g><g id="_Groupe_5" data-name="&lt;Groupe&gt;"><g id="_Groupe_6" data-name="&lt;Groupe&gt;"><path id="_Tracé_2" data-name="&lt;Tracé&gt;" class="cls-1" d="M100.59,93.25a1.64,1.64,0,0,1-1.25-.57,14.49,14.49,0,0,0-15.87-4.2,1.64,1.64,0,1,1-1.11-3.09,17.77,17.77,0,0,1,19.47,5.15,1.64,1.64,0,0,1-1.24,2.71Z"/></g></g><g id="_Groupe_7" data-name="&lt;Groupe&gt;"><g id="_Groupe_8" data-name="&lt;Groupe&gt;"><path id="_Tracé_3" data-name="&lt;Tracé&gt;" class="cls-1" d="M65,109.3a2.93,2.93,0,0,1-2.88-2.4,26.65,26.65,0,1,1,52.45-.07,2.93,2.93,0,1,1-5.77-1,21.07,21.07,0,0,0,.33-3.7,20.79,20.79,0,1,0-41.25,3.76A2.93,2.93,0,0,1,65,109.3Z"/></g></g></g><g id="_Groupe_9" data-name="&lt;Groupe&gt;"><g id="_Groupe_10" data-name="&lt;Groupe&gt;"><g id="_Groupe_11" data-name="&lt;Groupe&gt;"><path id="_Tracé_4" data-name="&lt;Tracé&gt;" class="cls-2" d="M58.52,33.38a2.34,2.34,0,0,1-.95-4.47,79.31,79.31,0,0,1,55.2-3.3,2.34,2.34,0,1,1-1.37,4.47,74.64,74.64,0,0,0-51.94,3.1A2.33,2.33,0,0,1,58.52,33.38Z"/></g></g><g id="_Groupe_12" data-name="&lt;Groupe&gt;"><g id="_Groupe_13" data-name="&lt;Groupe&gt;"><g id="_Groupe_14" data-name="&lt;Groupe&gt;"><path id="_Tracé_5" data-name="&lt;Tracé&gt;" class="cls-2" d="M128.71,104.44a2.34,2.34,0,0,1-2.34-2.34A37.67,37.67,0,0,0,88.74,64.47a38.21,38.21,0,0,0-4.4.25,2.34,2.34,0,1,1-.54-4.64,42.89,42.89,0,0,1,4.94-.29,42.35,42.35,0,0,1,42.3,42.3A2.34,2.34,0,0,1,128.71,104.44Z"/></g></g><g id="_Groupe_15" data-name="&lt;Groupe&gt;"><g id="_Groupe_16" data-name="&lt;Groupe&gt;"><path id="_Tracé_6" data-name="&lt;Tracé&gt;" class="cls-2" d="M145.4,92.79a2.34,2.34,0,0,1-2.29-1.87,55.21,55.21,0,0,0-3.75-11.6,2.34,2.34,0,0,1,4.26-1.92A59.91,59.91,0,0,1,147.69,90a2.34,2.34,0,0,1-2.29,2.8Z"/></g></g><g id="_Groupe_17" data-name="&lt;Groupe&gt;"><g id="_Groupe_18" data-name="&lt;Groupe&gt;"><path id="_Tracé_7" data-name="&lt;Tracé&gt;" class="cls-2" d="M48.77,104.44a2.34,2.34,0,0,1-2.34-2.34A42.28,42.28,0,0,1,65.16,67,6.61,6.61,0,0,0,63,55.14a6.75,6.75,0,0,0-5.41,1,55.51,55.51,0,0,0-22.7,32.24,2.34,2.34,0,0,1-4.53-1.15,60.18,60.18,0,0,1,24.6-35,11.43,11.43,0,0,1,9.16-1.64,11.28,11.28,0,0,1,3.65,20.25,37.61,37.61,0,0,0-16.66,31.25A2.34,2.34,0,0,1,48.77,104.44Z"/></g></g><g id="_Groupe_19" data-name="&lt;Groupe&gt;"><g id="_Groupe_20" data-name="&lt;Groupe&gt;"><path id="_Tracé_8" data-name="&lt;Tracé&gt;" class="cls-2" d="M159.53,72.06a2.34,2.34,0,0,1-2.13-1.38,74.76,74.76,0,0,0-22.65-28.57,7.8,7.8,0,0,0-6.43-1.44,7.7,7.7,0,0,0-3,13.61,60.5,60.5,0,0,1,12.11,12.4,2.34,2.34,0,0,1-3.77,2.75A55.85,55.85,0,0,0,122.43,58a12.37,12.37,0,0,1,4.88-21.88,12.47,12.47,0,0,1,10.27,2.29,79.45,79.45,0,0,1,24.07,30.37,2.34,2.34,0,0,1-2.13,3.29Z"/></g></g><g id="_Groupe_21" data-name="&lt;Groupe&gt;"><g id="_Groupe_22" data-name="&lt;Groupe&gt;"><path id="_Tracé_9" data-name="&lt;Tracé&gt;" class="cls-2" d="M19.64,72.06a2.34,2.34,0,0,1-2.13-3.29A79.36,79.36,0,0,1,42.76,37.52a2.34,2.34,0,1,1,2.77,3.76,74.69,74.69,0,0,0-23.75,29.4A2.34,2.34,0,0,1,19.64,72.06Z"/></g></g><g id="_Groupe_23" data-name="&lt;Groupe&gt;"><g id="_Groupe_24" data-name="&lt;Groupe&gt;"><path id="_Tracé_10" data-name="&lt;Tracé&gt;" class="cls-2" d="M111,51a2.32,2.32,0,0,1-.9-.18,55.86,55.86,0,0,0-36.6-2.16,2.34,2.34,0,0,1-1.28-4.49,60.53,60.53,0,0,1,39.67,2.34A2.34,2.34,0,0,1,111,51Z"/></g></g></g></g><g id="_Groupe_25" data-name="&lt;Groupe&gt;"><path class="cls-3" d="M176.28,111.28c-1.17-4.09-3.85-5.17-5.34-5.46-3-.56-5.64.66-8.23,1.85a15.32,15.32,0,0,1-5.91,1.83c-1.36,0-2-.46-3.29-1.63a13.2,13.2,0,0,0-5.65-3.31c8.61-7.52,15.19-15.44,19.29-23.33,4.34-8.33,5.28-15.5,4.29-18.9s-3.52-5.92-5.76-8.16a20.73,20.73,0,0,1-3.89-4.68,21.94,21.94,0,0,1-1.59-6.11c-.53-3.19-1.08-6.49-3.08-9.2s-5.09-4.29-8-5.75a21.71,21.71,0,0,1-5.25-3.22,22.07,22.07,0,0,1-3.5-5.16c-1.59-2.86-3.24-5.82-6.1-7.7s-6.29-2.25-9.57-2.58a22.28,22.28,0,0,1-6-1.14,22.14,22.14,0,0,1-5-3.44c-2.58-2.11-5.24-4.29-8.68-5s-6.61.3-9.76,1.24A22.75,22.75,0,0,1,89,2.73a22.74,22.74,0,0,1-6.12-1.27C79.76.52,76.5-.45,73.15.22S67,3.09,64.46,5.2a22.14,22.14,0,0,1-5,3.44,22.25,22.25,0,0,1-6,1.14c-3.28.33-6.68.68-9.57,2.58s-4.5,4.84-6.1,7.7a22.07,22.07,0,0,1-3.5,5.16A21.72,21.72,0,0,1,29,28.44c-2.94,1.46-6,3-8,5.75s-2.55,6-3.08,9.2a21.89,21.89,0,0,1-1.59,6.12,20.73,20.73,0,0,1-3.89,4.68C10.15,56.43,7.61,59,6.63,62.34s0,10.56,4.29,18.9c4.06,7.8,10.54,15.64,19,23.08a12.88,12.88,0,0,0-6.71,3.55c-1.31,1.17-1.9,1.64-3.29,1.63A15.32,15.32,0,0,1,14,107.67c-2.6-1.18-5.28-2.41-8.23-1.85-1.49.28-4.17,1.37-5.34,5.46a12.59,12.59,0,0,0,.67,8.49c2,4.45,7.22,13,20.51,20.33,15,8.29,35.95,12.7,62.2,13.16l.24,0h.14c1.37,0,2.75,0,4.16,0q2.86,0,5.63-.06a2.46,2.46,0,0,0,1,0c25.28-.65,45.49-5,60.12-13.11,13.29-7.33,18.56-15.88,20.51-20.33A12.59,12.59,0,0,0,176.28,111.28ZM15.63,78.79c-4-7.69-4.35-13.4-3.9-15,.6-2.07,2.46-3.93,4.42-5.89a24.78,24.78,0,0,0,4.87-6,26,26,0,0,0,2.1-7.65c.45-2.69.87-5.23,2.11-6.92s3.63-2.91,6.11-4.15a25.81,25.81,0,0,0,6.56-4.14,26.2,26.2,0,0,0,4.46-6.41C43.71,20.25,45,18,46.75,16.8s4.41-1.45,7.18-1.73a26.38,26.38,0,0,0,7.55-1.52,26.25,26.25,0,0,0,6.34-4.23C70,7.54,72,5.86,74.19,5.43s4.56.33,7.2,1.12A26.9,26.9,0,0,0,89,8a26.91,26.91,0,0,0,7.64-1.49c2.65-.79,5.15-1.53,7.2-1.12s4.19,2.1,6.36,3.88a26.25,26.25,0,0,0,6.35,4.23,26.38,26.38,0,0,0,7.55,1.52c2.77.28,5.38.54,7.18,1.73s3,3.45,4.38,5.86a26.23,26.23,0,0,0,4.46,6.41,25.82,25.82,0,0,0,6.56,4.14c2.48,1.23,4.83,2.4,6.11,4.15s1.67,4.23,2.11,6.92A26.05,26.05,0,0,0,157,51.91a24.78,24.78,0,0,0,4.87,6c2,2,3.82,3.83,4.42,5.89.45,1.56.1,7.27-3.9,15-3.43,6.59-10.52,16.51-25,27.41-1,.57-1.93,1.19-2.79,1.77a12.3,12.3,0,0,1-3.24,1.8,9,9,0,0,1-5.89-1.9c-2.45-1.58-5.51-3.55-13.05-3.55-6.75,0-11.51,2.9-15.71,5.45-3,1.85-5.67,3.45-8.36,3.45S83,111.63,80,109.78c-4.2-2.55-9-5.45-15.71-5.45-7.54,0-10.6,2-13.05,3.55a9,9,0,0,1-5.89,1.9,1.63,1.63,0,0,1-.55-.17,2.63,2.63,0,0,0-.83-1C27.21,96.78,19.31,85.86,15.63,78.79Zm155.11,38.84c-2.66,6.06-14.05,23.77-56.81,28.92,27.42-11.26,39.11-23.78,39.69-24.41a2.67,2.67,0,0,0-3.94-3.6c-.14.16-13.42,14.39-45,25.87,12-9.14,23.21-21.57,23.85-22.29a2.67,2.67,0,1,0-4-3.56c-.2.22-19.3,21.42-33.5,28.24V126.43a2.67,2.67,0,1,0-5.34,0v19.46c-14-7.62-31.53-27.12-31.72-27.33a2.67,2.67,0,0,0-4,3.56c.64.72,11.84,13.14,23.85,22.28C42.36,133,29,118.7,28.82,118.54a2.67,2.67,0,0,0-3.94,3.6c.58.64,12.45,13.36,40.36,24.69C20.47,142.07,8.7,123.8,6,117.63a7.28,7.28,0,0,1-.43-4.89c.29-1,.7-1.6,1.22-1.69,1.29-.25,3.11.58,5,1.46a19.8,19.8,0,0,0,8.06,2.31c3.51,0,5.38-1.63,6.88-3a7.6,7.6,0,0,1,5.18-2.43c2.48-.19,4.89,1.42,7.22,3,2.08,1.39,4,2.7,6.19,2.7a14.23,14.23,0,0,0,8.77-2.75c2.16-1.39,4.2-2.7,10.18-2.7,5.26,0,9.17,2.38,12.95,4.68,3.41,2.08,6.94,4.22,11.13,4.22s7.71-2.15,11.13-4.22c3.78-2.3,7.69-4.68,12.95-4.68,6,0,8,1.31,10.18,2.7a14.23,14.23,0,0,0,8.77,2.75,8.91,8.91,0,0,0,4.61-1.67,2.64,2.64,0,0,0,1.17-.46c1.07-.75,2.11-1.52,3.13-2.29a8.12,8.12,0,0,1,4.49-1.27,7.61,7.61,0,0,1,5.19,2.43,9.38,9.38,0,0,0,6.88,3,19.79,19.79,0,0,0,8.05-2.31c1.93-.88,3.75-1.71,5-1.46.52.1.93.67,1.22,1.69A7.27,7.27,0,0,1,170.75,117.63Z"/></g><g id="_Groupe_26" data-name="&lt;Groupe&gt;"><g id="_Groupe_27" data-name="&lt;Groupe&gt;"><path class="cls-3" d="M241.08,110c-16.37,0-24.72-10.8-24.72-27.17V74.4c0-16.37,8.35-27.17,24.72-27.17S265.91,58,265.91,74.4v8.46C265.91,99.23,257.45,110,241.08,110Zm15-35.63c0-11.36-4.56-18.59-15-18.59s-14.92,7.13-14.92,18.59v8.46c0,11.36,4.45,18.59,14.92,18.59s15-7.13,15-18.59Z"/></g><g id="_Groupe_28" data-name="&lt;Groupe&gt;"><path class="cls-3" d="M331,110a41.57,41.57,0,0,1-14.7-2.67A42.19,42.19,0,0,1,301.54,110c-11.47,0-22.49-5.23-22.49-24.94V50.24A2.23,2.23,0,0,1,281.28,48h5.23a2.23,2.23,0,0,1,2.23,2.23V85.09c0,12.14,4.34,16.59,13.69,16.59a38.91,38.91,0,0,0,8.91-1.45v-50A2.23,2.23,0,0,1,313.57,48H319a2.23,2.23,0,0,1,2.23,2.23v50a38.91,38.91,0,0,0,8.91,1.45c9.13,0,13.69-4.45,13.69-16.59V50.24A2.23,2.23,0,0,1,346.08,48h5.23a2.23,2.23,0,0,1,2.23,2.23V85.09C353.54,104.8,342.51,110,331,110Z"/></g><g id="_Groupe_29" data-name="&lt;Groupe&gt;"><path class="cls-3" d="M413.55,109.25h-5.79a2.05,2.05,0,0,1-2-2.23V67.28c0-8.35-2.12-11.58-9.69-11.58h-7.91c-7.57,0-9.69,3.23-9.69,11.58V107a2.05,2.05,0,0,1-2,2.23h-5.79a2.05,2.05,0,0,1-2-2.23V67.28c0-17.15,11.91-20,19.48-20h7.91c7.57,0,19.48,2.9,19.48,20V107A2.05,2.05,0,0,1,413.55,109.25Z"/></g><g id="_Groupe_30" data-name="&lt;Groupe&gt;"><path class="cls-3" d="M476,81.75h-37.3v1.34c0,12.8,6,18.7,16.26,18.7a137,137,0,0,0,19-1.56h.56a1.58,1.58,0,0,1,1.78,1.56v3.79c0,1.45-.45,2.23-2.23,2.56A93.07,93.07,0,0,1,455,110c-12.8,0-26.05-6.12-26.05-27.5V74.74c0-15.81,8.8-27.5,24.72-27.5,16.26,0,24.49,11.58,24.49,27.39V79.3C478.13,80.75,477.35,81.75,476,81.75Zm-7.79-8c0-11.91-4.79-17.93-14.59-17.93-9.57,0-14.92,6.46-14.92,17.93v.56h29.5Z"/></g><g id="_Groupe_31" data-name="&lt;Groupe&gt;"><path class="cls-3" d="M509.19,110a95,95,0,0,1-17.59-1.67c-1.45-.33-2.34-1-2.34-2.23v-3.9a1.8,1.8,0,0,1,2-1.67h.45c5.34.67,13.47,1.23,17.48,1.23,7.24,0,11-1.89,11-7.9,0-3.34-2-5.46-8.35-9.24L500.62,78c-6.79-4.12-11.36-8.91-11.36-15.92,0-11.58,8.68-14.81,20.15-14.81a104.27,104.27,0,0,1,17.37,1.45c1.45.22,2.12,1,2.12,2.23v3.67A1.7,1.7,0,0,1,527,56.48h-.33c-3.9-.33-11-.89-17.26-.89s-10.35.78-10.35,6.46c0,3.34,2.56,5.46,7.68,8.46l11,6.57C527,82.53,530,87.32,530,93.89,530,105.24,521.66,110,509.19,110Z"/></g><g id="_Groupe_32" data-name="&lt;Groupe&gt;"><path class="cls-3" d="M570.32,109.36a83.3,83.3,0,0,1-10.69.67c-10.47,0-16.48-3.45-16.48-15.48V37.1c0-1.11,1-1.89,2.23-2.12l5.46-.89h.22A2,2,0,0,1,553,36.21V48h17.37a2,2,0,0,1,2.12,2v3.79a2,2,0,0,1-2.12,2H553V94.56c0,6.46,2.12,7.57,8.24,7.57h9c1.56,0,2.34.45,2.34,1.56v3.79C572.55,108.47,572,109.14,570.32,109.36Z"/></g></g></g></g></g></svg>