<?xml version="1.0" encoding="utf-8"?>
<!-- Generator: Adobe Illustrator 19.1.0, SVG Export Plug-In . SVG Version: 6.00 Build 0)  -->
<svg version="1.1" id="Layer_1" xmlns="http://www.w3.org/2000/svg" xmlns:xlink="http://www.w3.org/1999/xlink" x="0px" y="0px"
	 viewBox="0 0 2560 1280" style="enable-background:new 0 0 2560 1280;" xml:space="preserve">
<style type="text/css">
	.st0{fill:#FECC00;}
</style>
<polygon class="st0" points="782.3,400.7 782.4,400.8 782,401 782,401.1 781.9,401 782,400.9 "/>
<polygon class="st0" points="823,377.2 823,377.3 822.9,377.3 "/>
<polygon class="st0" points="822.7,424.5 823,424.4 823,424.7 "/>
<polygon class="st0" points="863,683.5 904.1,707.3 863,731.1 "/>
<polygon class="st0" points="212,589.2 170.9,565.5 212,541.7 "/>
<polygon class="st0" points="1561,1053.2 1519.9,1029.5 1561,1005.7 "/>
<g>
	<polygon class="st0" points="1008.2,368.7 1008.2,368.7 1008.2,368.7 1008.2,368.7 1008.2,368.7 	"/>
	<polygon class="st0" points="1008.2,368.7 1008.2,368.7 1008.2,368.7 1008.2,368.7 1008.2,368.7 	"/>
	<polygon class="st0" points="1054.7,378.5 1054.6,378.5 1022.9,413.8 1008.2,368.7 1008.2,368.9 1008.2,369 1008.2,369 
		1008.2,368.8 993.5,323.6 1039.9,333.4 1040,333.4 	"/>
	<polygon class="st0" points="1008.2,368.7 1008.2,368.7 1008.2,368.7 1008.2,368.7 	"/>
</g>
<g>
	<polygon class="st0" points="1372.1,521.5 1329.2,541.8 1333.1,494.5 	"/>
</g>
<g>
	<polygon class="st0" points="1913.1,735.5 1870.2,755.8 1874.1,708.5 	"/>
</g>
<g>
	<polygon class="st0" points="1540.1,179.5 1497.2,199.8 1501.1,152.5 	"/>
</g>
<g>
	<polygon class="st0" points="1035.1,1111.9 994,1135.6 952.9,1111.9 994,1088.1 	"/>
</g>
<g>
	<polygon class="st0" points="698,967 739.1,990.8 698,1014.5 656.9,990.8 	"/>
	<polygon class="st0" points="822.1,992.9 781,1016.6 739.9,992.9 781,969.1 	"/>
</g>
<g>
	<polygon class="st0" points="590.1,332.3 590,332.4 590,379.8 548.9,356 549,356 549,308.6 	"/>
</g>
<polygon class="st0" points="740,376.2 740,376.3 740,376.3 "/>
<g>
	<polygon class="st0" points="1306,791.2 1347.1,814.9 1306,838.7 	"/>
	<polygon class="st0" points="1348,767.4 1389.1,791.2 1348,814.9 	"/>
</g>
<polygon class="st0" points="698,637.4 698,637.5 697.9,637.5 "/>
<g>
	<polygon class="st0" points="657.1,661.2 657,661.2 657,661.1 	"/>
	<polygon class="st0" points="657,661.1 657.1,661.2 657,661.2 	"/>
	<polygon class="st0" points="698,637.5 698,637.5 697.9,637.5 698,637.4 698,637.4 698.1,637.5 	"/>
	<polygon class="st0" points="657,661.1 657.1,661.2 657,661.2 657,661.2 656.9,661.2 657,661.1 	"/>
	<polygon class="st0" points="698,637.4 698,637.5 697.9,637.5 	"/>
</g>
<polygon class="st0" points="698,684.8 698.1,684.9 657,708.6 657,661.2 657.1,661.2 657,661.1 657,613.8 656.9,613.7 698,590 
	698,637.4 697.9,637.5 698,637.5 "/>
<polygon class="st0" points="823,377.2 823,377.3 822.9,377.3 "/>
<polygon class="st0" points="782.3,400.7 782.4,400.8 782,401 782,400.5 "/>
<polygon class="st0" points="823,377.4 823,377.3 822.9,377.3 823,377.2 823,377.2 823.1,377.3 "/>
<polygon class="st0" points="657,849 657,848.5 615.9,824.8 657,801 657,801.5 698.1,825.3 "/>
<polygon class="st0" points="823,329.8 823,377.2 822.9,377.3 823,377.3 823,424.4 822.7,424.5 782,448 782,401 782.4,400.8 
	782.3,400.7 782,400.5 782,353.6 781.9,353.6 "/>
<polygon class="st0" points="782.3,400.7 782.4,400.8 782,401 782,400.5 "/>
<polygon class="st0" points="823.1,424.3 823,424.4 823,424.2 "/>
<polygon class="st0" points="698,493.8 698,541.2 657,565.3 656.9,517.5 "/>
<polygon class="st0" points="605,541.8 605.1,589.6 564,613.3 564,565.8 "/>
<g>
	<polygon class="st0" points="699.1,400 699,400 699,400 	"/>
	<polygon class="st0" points="699,400 699.1,400 699,400 	"/>
	<polygon class="st0" points="740,376.4 740,376.3 740,376.3 740,376.2 740,376.2 740.1,376.3 	"/>
	<polygon class="st0" points="699,400 699.1,400 699,400 699,352.6 698.9,352.6 740,328.9 740,376.2 740,376.3 740,376.3 740,423.6 
		740.1,423.7 699,447.5 	"/>
	<polygon class="st0" points="699,400 699.1,400 699,400 699,400.1 698.9,400 699,399.9 	"/>
	<polygon class="st0" points="740,376.2 740,376.3 740,376.3 	"/>
</g>
</svg>
