<?xml version="1.0" encoding="utf-8"?>
<!-- Generator: Adobe Illustrator 22.1.0, SVG Export Plug-In . SVG Version: 6.00 Build 0)  -->
<svg version="1.1" id="Layer_1" xmlns="http://www.w3.org/2000/svg" xmlns:xlink="http://www.w3.org/1999/xlink" x="0px" y="0px"
	 viewBox="0 0 2560 1280" style="enable-background:new 0 0 2560 1280;" xml:space="preserve">
<style type="text/css">
	.st0{fill:#F78000;}
</style>
<polygon class="st0" points="822.1,423.7 822,423.8 822,423.7 "/>
<polygon class="st0" points="863.1,447.5 863,447.5 863,447.4 "/>
<polygon class="st0" points="1183,332.3 1224.1,356 1183,379.8 "/>
<polygon class="st0" points="1309,128.3 1350.1,152 1309,175.8 "/>
<polygon class="st0" points="1892,105.3 1933.1,129 1892,152.8 "/>
<g>
	<polygon class="st0" points="863.1,447.5 863,447.5 863,447.4 	"/>
	<polygon class="st0" points="904.1,471.2 904,471.2 904,471.1 	"/>
	<polygon class="st0" points="904.1,471.2 904,471.2 904,471.1 	"/>
	<polygon class="st0" points="863,494.8 863,494.9 862.9,494.8 	"/>
</g>
<g>
	<polygon class="st0" points="571,779.4 612.1,803.2 571,826.9 	"/>
</g>
<g>
	<polygon class="st0" points="1369,1085.4 1410.1,1109.2 1369,1132.9 	"/>
</g>
<g>
	<polygon class="st0" points="418.6,788.2 418,788.5 418,787.9 	"/>
	<polygon class="st0" points="418.6,788.2 418,788.5 418,787.9 	"/>
	<polygon class="st0" points="418.6,788.2 419.1,788.5 378,812.3 378,765.5 376.9,764.8 418,741 459.1,764.8 418.6,788.2 418,787.9 
		418,788.5 	"/>
</g>
<g>
	<polygon class="st0" points="863.1,1016.6 863,1016.6 863,1016.5 	"/>
	<polygon class="st0" points="863.1,1016.6 863,1016.6 863,1016.5 	"/>
</g>
<polygon class="st0" points="305,323.9 346.1,347.7 305,371.4 "/>
<polygon class="st0" points="658.1,613.7 658,613.8 658,660.4 657.4,660.8 657.5,660.8 658,661.1 658,707.9 657.9,707.9 658,707.9 
	658,755.4 616.9,731.6 617,731.5 617,684.2 617.1,684.2 617,684.1 617,637.5 617.7,637.1 617.6,637 617,636.7 617,590 "/>
<polygon class="st0" points="657,565.3 615.9,541.6 616,541.5 616,494.1 657.1,517.9 657,518 "/>
<polygon class="st0" points="658,707.9 658,707.9 657.9,707.9 "/>
<polygon class="st0" points="945.1,494.9 945,542.5 904,518.6 862.9,494.9 862.9,494.8 863,494.9 863,494.8 862.9,494.8 
	821.9,471.1 821.9,471.1 822,471.2 822,471.1 821.9,471.1 780.9,447.4 781,447.3 781,400 822.1,423.7 822.1,423.7 822,423.7 
	822,423.8 822.1,423.7 863.1,447.4 863.1,447.5 863,447.4 863,447.5 863.1,447.5 904.1,471.2 904.1,471.2 904,471.1 904,471.2 
	904.1,471.2 "/>
<polygon class="st0" points="822,471.1 822,471.2 821.9,471.1 "/>
<polygon class="st0" points="822,471.1 822,471.2 821.9,471.1 "/>
<polygon class="st0" points="863,494.8 863,494.9 862.9,494.8 "/>
<g>
	<polygon class="st0" points="398.1,958.7 357,982.5 315.9,958.7 357,935 	"/>
</g>
<polygon class="st0" points="617.6,637 617.7,637.1 617,637.5 617,637.5 616.9,637.4 617,637.4 "/>
<polygon class="st0" points="658,660.4 658,661.1 657.5,660.8 657.4,660.8 "/>
<polygon class="st0" points="617.7,637.1 617,637.5 617,636.7 617.6,637 "/>
<polygon class="st0" points="617,684.1 617.1,684.2 617,684.2 "/>
<polygon class="st0" points="658,708 658,707.9 657.9,707.9 658,707.9 658,707.8 658.1,707.9 "/>
<polygon class="st0" points="698.1,1014.9 698,1015 698,1062.4 656.9,1038.6 657,1038.5 657,991.1 "/>
<polygon class="st0" points="617,684.1 617.1,684.2 617,684.2 617,684.3 616.9,684.2 "/>
<polygon class="st0" points="658,660.4 658,661.1 657.5,660.8 657.4,660.8 "/>
<polygon class="st0" points="657.9,707.9 658,707.9 658,707.9 "/>
<polygon class="st0" points="617,684.1 617.1,684.2 617,684.2 "/>
<polygon class="st0" points="617.6,637 617.7,637.1 617,637.5 617,636.7 "/>
<polygon class="st0" points="658.1,660.5 658,660.5 657.5,660.8 657.4,660.8 658,660.4 658,660.4 "/>
<polygon class="st0" points="657.1,848.5 657,848.6 657,896 615.9,872.2 616,872.1 616,824.8 "/>
<g>
	<polygon class="st0" points="564,612.3 522.9,588.6 524,587.9 524,541.1 565.1,564.9 564,565.5 	"/>
	<polygon class="st0" points="569.1,682.5 569,682.6 569,730 527.9,706.2 528,706.1 528,658.7 	"/>
</g>
<polygon class="st0" points="1126.2,1199.6 1162.6,1169.1 1170.8,1215.9 "/>
<g>
	<polygon class="st0" points="1207.1,1185.5 1170.7,1216 1162.5,1169.2 	"/>
</g>
<g>
	<polygon class="st0" points="2195.1,145.5 2158.7,176 2158.7,175.8 2114.2,159.6 2150.6,129.1 2150.6,129.3 	"/>
</g>
<polygon class="st0" points="905,754.6 905,754.8 904.9,754.7 "/>
<polygon class="st0" points="946.1,731 946,731.1 946,778.5 904.9,754.7 904.9,754.7 905,754.8 905,754.6 904.9,754.7 863.9,731 
	905,707.3 "/>
<polygon class="st0" points="905,754.6 905,754.8 904.9,754.7 "/>
<polygon class="st0" points="822.1,423.7 822,423.8 822,423.7 "/>
<polygon class="st0" points="1156.1,636.7 1115,660.5 1073.9,636.7 1115,613 "/>
<g>
	<polygon class="st0" points="1146.9,853.4 1146.8,853.5 1146.8,853.4 	"/>
	<polygon class="st0" points="1146.9,853.4 1146.8,853.5 1146.8,853.4 	"/>
	<polygon class="st0" points="1146.9,853.4 1146.9,853.4 1146.8,853.4 	"/>
	<polygon class="st0" points="1193.2,864 1193.1,864 1160.8,898.8 1114.5,888.2 1146.8,853.4 1146.8,853.5 1146.9,853.4 
		1146.9,853.4 1146.8,853.4 1132.8,808.1 1179.1,818.6 1179.2,818.6 	"/>
</g>
<polygon class="st0" points="863.1,1016.6 863.1,1016.6 822,1040.4 822,1040.8 780.9,1017 822,993.3 822,993 821.9,992.9 863,969.1 
	904.1,992.9 863.1,1016.6 863,1016.5 863,1016.6 "/>
</svg>
