<?xml version="1.0" encoding="utf-8"?>
<!-- Generator: Adobe Illustrator 22.1.0, SVG Export Plug-In . SVG Version: 6.00 Build 0)  -->
<svg version="1.1" id="Layer_1" xmlns="http://www.w3.org/2000/svg" xmlns:xlink="http://www.w3.org/1999/xlink" x="0px" y="0px"
	 viewBox="0 0 2560 1280" style="enable-background:new 0 0 2560 1280;" xml:space="preserve">
<style type="text/css">
	.st0{fill:#FFFF33;}
</style>
<polygon class="st0" points="822,1087.7 822,1087.8 821.9,1087.8 "/>
<polygon class="st0" points="569,682.5 527.9,658.8 569,635 "/>
<polygon class="st0" points="1162.5,1169.2 1126.2,1199.8 1117.9,1153 "/>
<polygon class="st0" points="699,730.9 699,731 698.9,731 "/>
<polygon class="st0" points="739.9,754.4 740,754.3 740,754.5 "/>
<polygon class="st0" points="781,730.7 781,730.9 780.8,730.8 "/>
<polygon class="st0" points="780.9,730.9 781,730.9 781,731 "/>
<polygon class="st0" points="698.9,731 699,730.9 699,731 "/>
<polygon class="st0" points="740,707.2 740,707.4 739.8,707.3 "/>
<polygon class="st0" points="739.9,754.4 740,754.3 740,754.5 "/>
<polygon class="st0" points="232,836.6 190.9,860.4 232,884.1 "/>
<polygon class="st0" points="656.9,471.1 657,471.1 657,471.2 "/>
<polygon class="st0" points="698,494 698,494.9 697.2,494.4 "/>
<polygon class="st0" points="377,423.8 335.9,447.6 377,471.3 "/>
<polygon class="st0" points="2410,332.8 2368.9,356.6 2410,380.3 "/>
<polygon class="st0" points="2175,1191.8 2133.9,1215.6 2175,1239.3 "/>
<polygon class="st0" points="822,1087.7 822,1087.8 821.9,1087.8 "/>
<polygon class="st0" points="822,1040.3 822,1087.7 821.9,1087.8 822,1087.8 822,1135.2 780.9,1111.5 781,1111.4 781,1064.1 
	780.9,1064 "/>
<polygon class="st0" points="822,1087.9 822,1087.8 821.9,1087.8 822,1087.7 822,1087.7 822.2,1087.8 "/>
<g>
	<polygon class="st0" points="863,683.5 862.9,683.5 862.9,683.5 903.9,659.8 904,659.9 904,659.8 903.9,659.8 903.9,659.8 945,636 
		986.1,659.8 945.1,683.5 945,683.4 945,683.5 945.1,683.5 945.1,683.5 904,707.3 863,683.6 	"/>
	<polygon class="st0" points="987.1,754.7 946,778.5 904.9,754.7 904.9,754.7 905,754.8 905,754.6 904.9,754.7 863.9,731 905,707.3 
		946.1,731 946.1,731 946,731 946,731.1 946.1,731 	"/>
	<polygon class="st0" points="863.1,730.9 822.1,754.6 822,754.6 822,754.7 822.1,754.6 822.1,754.7 781,778.4 781,778.2 
		740.2,754.6 740,754.5 740,754.3 739.9,754.4 740,754.5 740,754.7 699.2,731.1 699,731 699,730.9 698.9,731 699,731 699,731.3 
		657.9,707.6 699,683.8 699,683.7 739.8,707.3 740,707.4 740,707.6 740.1,707.5 740,707.4 740,707.2 780.8,730.8 781,730.9 
		780.9,730.9 781,731 781.1,731 781.1,730.9 781,730.9 821.9,707.2 822,707.3 822,707.2 821.9,707.2 821.9,707.2 862.9,683.5 
		863,683.6 863,730.9 	"/>
	<polygon class="st0" points="904,659.8 904,659.9 903.9,659.8 	"/>
	<polygon class="st0" points="862.9,683.5 863,683.5 863,683.6 	"/>
	<polygon class="st0" points="904,659.8 904,659.9 903.9,659.8 	"/>
	<polygon class="st0" points="945.1,683.5 945,683.5 945,683.4 	"/>
	<polygon class="st0" points="945.1,683.5 945,683.5 945,683.4 	"/>
</g>
<g>
	<polygon class="st0" points="821.9,707.2 822,707.2 822,707.3 	"/>
	<polygon class="st0" points="863,683.5 863,683.6 862.9,683.5 	"/>
	<polygon class="st0" points="781,730.9 781.1,730.9 781.1,731 781,731 780.9,730.9 	"/>
	<polygon class="st0" points="822,707.2 822,707.3 821.9,707.2 	"/>
	<polygon class="st0" points="822.1,754.6 822,754.7 822,754.6 	"/>
</g>
<g>
	<polygon class="st0" points="657,943.3 657,895.9 656.9,895.9 698,872.1 698,919.5 698.1,919.6 	"/>
	<polygon class="st0" points="632,958.6 632.1,958.6 591,982.4 591,935 590.9,934.9 632,911.2 	"/>
</g>
<g>
	<polygon class="st0" points="1193,529.4 1193,482 1192.9,481.9 1234,458.2 1234,505.6 1234.1,505.6 	"/>
</g>
<g>
	<polygon class="st0" points="925,958.6 925,958.7 924.9,958.7 	"/>
	<polygon class="st0" points="925,958.6 925,958.7 924.9,958.7 	"/>
	<polygon class="st0" points="966.1,982.3 966,982.4 966,982.3 	"/>
	<polygon class="st0" points="966.1,982.3 966.1,982.3 925,1006.1 883.9,982.3 924.9,958.7 925,958.7 925,958.6 924.9,958.7 
		924.9,958.6 966,934.9 1007.1,958.6 966.1,982.3 966,982.3 966,982.4 	"/>
	<polygon class="st0" points="966.1,982.3 966,982.4 966,982.3 	"/>
</g>
<g>
	<polygon class="st0" points="357,1029.8 357,982.4 356.9,982.3 398,958.6 398,1006 398.1,1006.1 	"/>
</g>
<polygon class="st0" points="781,730.9 781.1,731 781,731 "/>
<polygon class="st0" points="822.1,754.6 822,754.7 822,754.6 "/>
<polygon class="st0" points="740.1,707.5 740,707.6 740,707.4 "/>
<polygon class="st0" points="740,754.5 740.2,754.6 740,754.7 "/>
<polygon class="st0" points="781.1,730.9 781.1,731 781,731 780.9,730.9 781,730.9 "/>
<polygon class="st0" points="699,731 699.2,731.1 699,731.2 "/>
<polygon class="st0" points="740.1,707.5 740,707.6 740,707.4 "/>
<polygon class="st0" points="699.1,590 658,613.8 658,614.1 616.9,590.4 658,566.7 658,566.3 "/>
<polygon class="st0" points="740.1,1085.7 740,1085.7 740,1133.1 698.9,1109.4 699,1109.3 699,1061.9 698.9,1061.9 740,1038.1 
	740,1085.6 "/>
<polygon class="st0" points="657,470.2 657.8,470.6 657,471.1 "/>
<polygon class="st0" points="698.1,493.9 698,494 698,493.8 "/>
<polygon class="st0" points="698,447.4 698,494 697.2,494.4 657,517.6 657,517.8 615.9,494.1 657,470.4 657,471.1 656.9,471.1 
	657,471.2 657,471.1 657.8,470.6 "/>
<polygon class="st0" points="657,471.1 657,471.2 656.9,471.1 "/>
<polygon class="st0" points="780.9,447.4 781,447.5 740,471.2 740,423.7 781,447.3 "/>
<polygon class="st0" points="945,542.6 945,542.5 904,518.6 862.9,494.9 862.9,494.8 863,494.9 863,494.8 862.9,494.8 821.9,471.1 
	821.9,471.1 822,471.2 822,471.1 821.9,471.1 781,447.5 781.1,447.4 781,447.3 822,423.7 863.1,447.4 863.1,447.5 863,447.4 
	863,447.5 863.1,447.5 904.1,471.2 904.1,471.2 904,471.1 904,471.2 904.1,471.2 945.1,494.9 986.1,518.9 "/>
<polygon class="st0" points="894,457 860.2,437.5 894,418 894,418.2 927.8,437.7 894,457.2 "/>
<polygon class="st0" points="781.1,447.4 781,447.5 780.9,447.4 781,447.3 "/>
<polygon class="st0" points="564,565.6 564,564.8 522.9,541.1 564,517.4 564,518.2 605.1,541.9 "/>
<polygon class="st0" points="946.1,731 946,731.1 946,731 "/>
<polygon class="st0" points="863.1,447.5 863,447.5 863,447.4 "/>
<g>
	<polygon class="st0" points="863.1,447.5 863,447.5 863,447.4 	"/>
	<polygon class="st0" points="904.1,471.2 904,471.2 904,471.1 	"/>
	<polygon class="st0" points="904.1,471.2 904,471.2 904,471.1 	"/>
	<polygon class="st0" points="863,494.8 863,494.9 862.9,494.8 	"/>
</g>
<polygon class="st0" points="781.1,447.4 781,447.5 780.9,447.4 781,447.3 "/>
<polygon class="st0" points="822,471.1 822,471.2 821.9,471.1 "/>
<polygon class="st0" points="822,471.1 822,471.2 821.9,471.1 "/>
<polygon class="st0" points="863,494.8 863,494.9 862.9,494.8 "/>
<polygon class="st0" points="905,754.6 905,754.8 904.9,754.7 "/>
<polygon class="st0" points="946.1,731 946,731.1 946,731 "/>
<polygon class="st0" points="905,754.6 905,754.8 904.9,754.7 "/>
</svg>
