<?xml version="1.0" encoding="utf-8"?>
<!-- Generator: Adobe Illustrator 22.1.0, SVG Export Plug-In . SVG Version: 6.00 Build 0)  -->
<svg version="1.1" id="Layer_1" xmlns="http://www.w3.org/2000/svg" xmlns:xlink="http://www.w3.org/1999/xlink" x="0px" y="0px"
	 viewBox="0 0 2560 1280" style="enable-background:new 0 0 2560 1280;" xml:space="preserve">
<style type="text/css">
	.st0{fill:#934600;}
</style>
<polygon class="st0" points="657,943.3 657,943.5 656.9,943.4 "/>
<polygon class="st0" points="946,825.8 946.1,825.9 946,825.9 946,826 945.9,825.9 "/>
<polygon class="st0" points="987,802.1 987,802.2 986.9,802.2 "/>
<polygon class="st0" points="986.9,849.6 987,849.6 987,849.6 "/>
<polygon class="st0" points="960.4,597.5 960,597.8 960,597.3 960.3,597.5 "/>
<polygon class="st0" points="657,801 657.1,801.1 657,801.1 "/>
<path class="st0" d="M657,848.5L657,848.5L657,848.5z"/>
<polygon class="st0" points="698,824.9 698,824.8 697.9,824.8 698,824.8 698,824.7 698.1,824.8 "/>
<polygon class="st0" points="698,872.1 698.1,872.2 657,896 657,848.5 657.1,848.5 657,848.5 657,801.1 657.1,801.1 657,801 
	657,754.1 657.4,753.8 657.3,753.8 657,753.6 657,706.6 698.1,730.3 698,730.4 698,777.3 697.6,777.5 697.7,777.6 698,777.8 
	698,824.8 697.9,824.8 698,824.8 "/>
<polygon class="st0" points="657.1,848.5 657,848.5 657,848.5 "/>
<polygon class="st0" points="657,848.5 657.1,848.5 657,848.5 657,848.6 656.9,848.5 657,848.4 "/>
<polygon class="st0" points="698,824.8 698,824.8 697.9,824.8 "/>
<polygon class="st0" points="698.1,967.1 657,990.8 615.9,967.1 656.9,943.4 657,943.5 657,943.3 656.9,943.4 656.9,943.4 
	698,919.6 698,967 "/>
<polygon class="st0" points="657,943.3 657,943.5 656.9,943.4 "/>
<polygon class="st0" points="986,612.4 986,612.8 985.8,612.7 985.6,612.6 "/>
<polygon class="st0" points="960.3,597.5 960.4,597.5 960,597.8 960,597.6 "/>
<polygon class="st0" points="986,612.4 986,612.8 985.8,612.7 985.6,612.6 "/>
<g>
	<polygon class="st0" points="160.1,1018.7 160,1018.8 160,1066.2 118.9,1042.4 119,1042.3 119,995 	"/>
</g>
<g>
	<polygon class="st0" points="1410.1,391.7 1410,391.8 1410,439.2 1368.9,415.4 1369,415.3 1369,368 	"/>
</g>
<path class="st0" d="M946,873.3L946,873.3L946,873.3z"/>
<polygon class="st0" points="946,825.8 946.1,825.9 946,825.9 "/>
<polygon class="st0" points="987,849.7 987,849.6 986.9,849.6 987,849.6 987,849.5 987.1,849.6 "/>
<polygon class="st0" points="1001.1,574 1001,574.1 1001,621.5 986,612.8 986,612.4 985.6,612.6 985.8,612.7 986,612.8 986,659.9 
	944.9,636.1 945,636.1 945,588.7 960,597.3 960,597.8 960.4,597.5 960.3,597.5 960,597.3 960,550.5 945.9,542.3 987,518.5 
	987,565.8 "/>
<polygon class="st0" points="960.3,597.5 960.4,597.5 960,597.8 960,597.3 "/>
<polygon class="st0" points="986,612.4 986,612.5 985.8,612.7 985.6,612.6 "/>
<g>
	<path class="st0" d="M699,400L699,400L699,400z"/>
	<polygon class="st0" points="740,423.8 740,423.7 739.9,423.7 740,423.7 740,423.6 740.1,423.7 	"/>
	<polygon class="st0" points="699.1,400 699,400 699,400 	"/>
	<polygon class="st0" points="699,400 699.1,400 699,400 699,400.1 698.9,400 699,399.9 	"/>
	<polygon class="st0" points="740,423.7 740,423.7 739.9,423.7 	"/>
</g>
<polygon class="st0" points="657,801 657.1,801.1 657,801.1 657,801.1 656.9,801.1 "/>
<polygon class="st0" points="698,777.3 698,777.8 697.7,777.6 697.6,777.5 "/>
<polygon class="st0" points="697.9,824.8 698,824.8 698,824.8 "/>
<polygon class="st0" points="657.3,753.8 657.4,753.8 657,754.1 657,754.1 656.9,754 657,754 "/>
<polygon class="st0" points="698,777.3 698,777.8 697.7,777.6 697.6,777.5 "/>
<polygon class="st0" points="657.4,753.8 657,754.1 657,753.6 657.3,753.8 "/>
<g>
	<polygon class="st0" points="657,801 657.1,801.1 657,801.1 	"/>
	<polygon class="st0" points="657.3,753.8 657.4,753.8 657,754.1 657,753.6 	"/>
	<polygon class="st0" points="698.1,777.4 698,777.4 697.7,777.6 697.6,777.5 698,777.3 698,777.3 	"/>
</g>
<polygon class="st0" points="549,356 590.1,379.8 549,403.5 "/>
<polygon class="st0" points="549,403.5 507.9,379.8 549,356 "/>
<polygon class="st0" points="1115,707.9 1115,660.5 1114.9,660.5 1156,636.7 1156,684.1 1156.1,684.2 "/>
<polygon class="st0" points="740.1,376.3 740,376.4 740,423.7 739.9,423.7 740,423.7 740,471.2 698.9,447.4 699,447.3 699,400 
	699.1,400 699,400 699,352.5 "/>
<polygon class="st0" points="740,423.7 740,423.7 739.9,423.7 "/>
<g>
	<polygon class="st0" points="698,1062 698,1014.6 697.9,1014.5 739,990.8 739,1038.1 739.1,1038.2 	"/>
</g>
<g>
	<polygon class="st0" points="781,1064.1 781,1016.7 780.9,1016.6 822,992.9 822,1040.2 822.1,1040.3 	"/>
</g>
<g>
	<polygon class="st0" points="1035,1109.9 1035,1157.4 993.9,1133.6 	"/>
	<polygon class="st0" points="993,1133.6 1034.1,1157.3 993,1181.1 	"/>
</g>
<g>
	<polygon class="st0" points="548.5,1093.7 548.5,1093.8 548.4,1093.7 548.4,1093.7 	"/>
	<polygon class="st0" points="548,1093.5 548.3,1093.7 548.3,1093.7 548.2,1093.7 548,1093.8 	"/>
	<path class="st0" d="M549,1046.2L549,1046.2z M507.5,1069.6l40.4,23.8l0.2,0.3l0,0l0,0v47.5l41.3-23.5l0.3-47.5h0.1l-40.8-24l0,0
		l0,0v-0.3L507.5,1069.6z M548.5,1093.8L548.5,1093.8L548.5,1093.8L548.5,1093.8L548.5,1093.8z"/>
	<polygon class="st0" points="548,1093.5 548.3,1093.7 548.3,1093.7 548.2,1093.7 548,1093.8 	"/>
	<polygon class="st0" points="548.5,1093.7 548.5,1093.8 548.4,1093.7 548.4,1093.7 	"/>
</g>
<g>
	<polygon class="st0" points="946,873.3 946.1,873.3 946,873.3 946,873.4 945.9,873.3 946,873.2 	"/>
	<polygon class="st0" points="987,849.6 987,849.6 986.9,849.6 	"/>
	<polygon class="st0" points="986.9,897 987,897 987,897.1 	"/>
	<polygon class="st0" points="987,897 987,897.1 986.9,897 	"/>
	<path class="st0" d="M946,873.3L946,873.3L946,873.3z"/>
	<polygon class="st0" points="987,897.1 987,897.1 986.9,897 987,897 987,897 987.1,897 	"/>
</g>
<polygon class="st0" points="249.9,424.5 296.3,435 264,469.8 "/>
<polygon class="st0" points="1245.3,1110 1205.1,1135.3 1203.3,1087.8 "/>
<polygon class="st0" points="1329.4,969.5 1283.1,959 1315.4,924.1 "/>
<polygon class="st0" points="1837.4,460.5 1791.1,450 1823.4,415.1 "/>
<polygon class="st0" points="1860.4,1191.5 1814.1,1181 1846.4,1146.1 "/>
<polygon class="st0" points="987,754.7 987,802.1 986.9,802.2 987,802.2 987,849.6 986.9,849.6 987,849.6 987,897 986.9,897 
	987,897.1 987,944.5 945.9,920.7 946,920.7 946,873.3 946.1,873.3 946,873.3 946,825.9 946.1,825.9 946,825.8 946,778.5 
	945.9,778.5 "/>
<polygon class="st0" points="987,802.1 987,802.2 986.9,802.2 "/>
<polygon class="st0" points="946,825.8 946.1,825.9 946,825.9 "/>
<polygon class="st0" points="987,802.2 987,802.2 986.9,802.2 987,802.1 987,802.1 987.1,802.2 "/>
</svg>
