<?xml version="1.0" encoding="utf-8"?>
<!-- Generator: Adobe Illustrator 19.1.0, SVG Export Plug-In . SVG Version: 6.00 Build 0)  -->
<svg version="1.1" xmlns="http://www.w3.org/2000/svg" xmlns:xlink="http://www.w3.org/1999/xlink" x="0px" y="0px"
	 viewBox="0 0 2560 1280" style="enable-background:new 0 0 2560 1280;" xml:space="preserve">
<style type="text/css">
	.st0{fill:#333333;}
	.st1{fill:#232333;}
	.st2{fill:#FFFF33;}
	.st3{fill:#FECC00;}
	.st4{fill:#F78000;}
	.st5{fill:#934600;}
</style>
<g id="Background">
	<rect class="st0" width="2560" height="1280"/>
</g>
<g id="Background1">
	<polyline class="st1" points="1679.1,0 1115,1280 2560,1280 2560,0 1679,0 	"/>
</g>
<g id="Layer_1">
	<path class="st2" d="M668.9,556.2"/>
	<polygon class="st2" points="822,1040.3 780.9,1064 822,1087.8 	"/>
	<polygon class="st2" points="569,682.5 527.9,658.8 569,635 	"/>
	<polygon class="st2" points="1162.5,1169.2 1126.2,1199.8 1117.9,1153 	"/>
	<polygon class="st2" points="699,683.9 657.9,707.6 699,731.4 	"/>
	<polygon class="st2" points="781,730.7 739.9,754.4 781,778.2 	"/>
	<polygon class="st2" points="740,707.2 698.9,731 740,754.7 	"/>
	<polygon class="st2" points="232,836.6 190.9,860.4 232,884.1 	"/>
	<polygon class="st2" points="698,447.4 656.9,471.1 698,494.9 	"/>
	<polygon class="st2" points="377,423.8 335.9,447.6 377,471.3 	"/>
	<polygon class="st2" points="2410,332.8 2368.9,356.6 2410,380.3 	"/>
	<polygon class="st2" points="2175,1191.8 2133.9,1215.6 2175,1239.3 	"/>
	<polygon class="st2" points="740,1085.6 698.9,1109.4 740,1133.1 	"/>
	<polygon class="st2" points="822,1087.7 780.9,1111.5 822,1135.2 	"/>
	<polygon class="st2" points="894,418 860.2,437.5 894,457 	"/>
	<polygon class="st2" points="781,1064 822.2,1087.8 781,1111.5 	"/>
	<polygon class="st2" points="894,418.2 927.8,437.7 894,457.2 	"/>
	<g>
		<polygon class="st2" points="945,683.5 903.9,659.8 945,636 		"/>
		<polygon class="st2" points="904,707.3 862.9,683.5 904,659.8 		"/>
		<polygon class="st2" points="904,659.8 945.1,683.5 904,707.3 		"/>
		<polygon class="st2" points="945,636 986.1,659.8 945,683.5 		"/>
	</g>
	<g>
		<polygon class="st2" points="863,731 821.9,707.2 863,683.5 		"/>
		<polygon class="st2" points="822,754.7 780.9,730.9 822,707.2 		"/>
		<polygon class="st2" points="822,707.2 863.1,730.9 822,754.7 		"/>
	</g>
	<g>
		<polygon class="st2" points="698,919.6 656.9,895.9 698,872.1 		"/>
		<polygon class="st2" points="657,895.8 698.1,919.6 657,943.3 		"/>
	</g>
	<g>
		<polygon class="st2" points="632,958.7 590.9,934.9 632,911.2 		"/>
		<polygon class="st2" points="591,934.9 632.1,958.6 591,982.4 		"/>
	</g>
	<g>
		<polygon class="st2" points="1234,505.7 1192.9,481.9 1234,458.2 		"/>
		<polygon class="st2" points="1193,481.9 1234.1,505.6 1193,529.4 		"/>
	</g>
	<g>
		<polygon class="st2" points="966,982.4 924.9,958.6 966,934.9 		"/>
		<polygon class="st2" points="925,1006.1 883.9,982.4 925,958.6 		"/>
		<polygon class="st2" points="925,958.6 966.1,982.4 925,1006.1 		"/>
		<polygon class="st2" points="966,934.9 1007.1,958.6 966,982.4 		"/>
	</g>
	<g>
		<polygon class="st2" points="398,1006.1 356.9,982.4 398,958.6 		"/>
		<polygon class="st2" points="357,982.3 398.1,1006.1 357,1029.8 		"/>
	</g>
	<polygon class="st2" points="740,1085.6 698.9,1061.9 740,1038.1 	"/>
	<polygon class="st2" points="781,730.9 822.1,754.7 781,778.4 	"/>
	<polygon class="st2" points="740,707.2 781.1,730.9 740,754.7 	"/>
	<polygon class="st2" points="699,683.7 740.1,707.5 699,731.2 	"/>
	<polygon class="st2" points="658,566.7 616.9,590.4 658,614.1 	"/>
	<polygon class="st2" points="658,566.3 699.1,590 658,613.8 	"/>
	<polygon class="st2" points="699,1061.9 740.1,1085.7 699,1109.4 	"/>
	<polygon class="st2" points="657,517.6 698.1,493.9 657,470.2 	"/>
	<polygon class="st2" points="945,542.6 986.1,518.9 945,495.2 	"/>
	<polygon class="st2" points="657,470.4 615.9,494.1 657,517.8 	"/>
	<polygon class="st2" points="740,423.7 781.1,447.4 740,471.2 	"/>
	<polygon class="st2" points="564,565.6 605.1,541.9 564,518.2 	"/>
	<polygon class="st2" points="564,517.4 522.9,541.1 564,564.8 	"/>
	<polygon class="st2" points="946,731 987.1,754.7 946,778.5 	"/>
	<polygon class="st2" points="822,423.7 863.1,447.4 822,471.2 	"/>
	<g>
		<polygon class="st2" points="863,447.4 904.1,471.2 863,494.9 		"/>
		<polygon class="st2" points="904,471.1 945.1,494.9 904,518.6 		"/>
		<polygon class="st2" points="904,518.6 862.9,494.9 904,471.1 		"/>
	</g>
	<polygon class="st2" points="822,423.7 780.9,447.4 822,471.2 	"/>
	<polygon class="st2" points="863,447.4 821.9,471.1 863,494.9 	"/>
	<polygon class="st2" points="945,495.1 903.9,518.9 945,542.6 	"/>
	<polygon class="st2" points="905,754.8 863.9,731 905,707.3 	"/>
	<polygon class="st2" points="905,707.3 946.1,731 905,754.8 	"/>
	<polygon class="st2" points="946,778.5 904.9,754.7 946,731 	"/>
</g>
<g id="Layer_2">
	<polygon class="st3" points="657,848.5 615.9,824.8 657,801 	"/>
	<polygon class="st3" points="823,424.7 781.9,401 823,377.2 	"/>
	<polygon class="st3" points="863,683.5 904.1,707.3 863,731.1 	"/>
	<polygon class="st3" points="212,589.2 170.9,565.5 212,541.7 	"/>
	<polygon class="st3" points="1561,1053.2 1519.9,1029.5 1561,1005.7 	"/>
	<g>
		<polygon class="st3" points="1008.2,368.7 1054.6,378.5 1022.9,413.8 		"/>
		<polygon class="st3" points="993.5,323.6 1040,333.4 1008.2,368.7 		"/>
		<polygon class="st3" points="1054.7,378.5 1008.2,368.7 1040,333.4 		"/>
	</g>
	<g>
		<polygon class="st3" points="1372.1,521.5 1329.2,541.8 1333.1,494.5 		"/>
	</g>
	<g>
		<polygon class="st3" points="1913.1,735.5 1870.2,755.8 1874.1,708.5 		"/>
	</g>
	<g>
		<polygon class="st3" points="1540.1,179.5 1497.2,199.8 1501.1,152.5 		"/>
	</g>
	<g>
		<polygon class="st3" points="781,969.1 822.1,992.9 781,1016.6 		"/>
		<polygon class="st3" points="781,1016.6 739.9,992.9 781,969.1 		"/>
	</g>
	<g>
		<polygon class="st3" points="993,1086.1 1034.1,1109.9 993,1133.6 		"/>
		<polygon class="st3" points="993,1133.6 951.9,1109.9 993,1086.1 		"/>
	</g>
	<g>
		<polygon class="st3" points="698,967 739.1,990.8 698,1014.6 		"/>
		<polygon class="st3" points="698,1014.6 656.9,990.8 698,967 		"/>
	</g>
	<g>
		<polygon class="st3" points="549,308.6 590.1,332.3 549,356.1 		"/>
		<polygon class="st3" points="590,379.8 548.9,356 590,332.3 		"/>
	</g>
	<polygon class="st3" points="740,328.9 698.9,352.6 740,376.3 	"/>
	<g>
		<polygon class="st3" points="1306,796.2 1347.1,819.9 1306,843.7 		"/>
		<polygon class="st3" points="1348,772.4 1389.1,796.2 1348,819.9 		"/>
	</g>
	<polygon class="st3" points="698,590 656.9,613.7 698,637.5 	"/>
	<g>
		<polygon class="st3" points="657,661.1 698.1,684.9 657,708.6 		"/>
		<polygon class="st3" points="657,613.7 698.1,637.5 657,661.2 		"/>
		<polygon class="st3" points="698,684.9 656.9,661.2 698,637.4 		"/>
	</g>
	<polygon class="st3" points="698,493.8 656.9,517.5 698,541.3 	"/>
	<polygon class="st3" points="657,517.8 698.1,541.6 657,565.3 	"/>
	<polygon class="st3" points="823,377.3 781.9,353.6 823,329.8 	"/>
	<polygon class="st3" points="782,353.5 823.1,377.3 782,401 	"/>
	<polygon class="st3" points="605,541.8 563.9,565.5 605,589.3 	"/>
	<polygon class="st3" points="564,565.8 605.1,589.6 564,613.3 	"/>
</g>
<g id="Layer_3">
	<polygon class="st4" points="822,423.7 863.1,447.4 822,471.2 	"/>
	<polygon class="st4" points="1183,332.3 1224.1,356 1183,379.8 	"/>
	<polygon class="st4" points="1309,128.3 1350.1,152 1309,175.8 	"/>
	<polygon class="st4" points="1892,105.3 1933.1,129 1892,152.8 	"/>
	<g>
		<polygon class="st4" points="863,447.4 904.1,471.2 863,494.9 		"/>
		<polygon class="st4" points="904,471.1 945.1,494.9 904,518.6 		"/>
		<polygon class="st4" points="904,518.6 862.9,494.9 904,471.1 		"/>
	</g>
	<g>
		<polygon class="st4" points="571,779.4 612.1,803.2 571,826.9 		"/>
	</g>
	<g>
		<polygon class="st4" points="1369,1085.4 1410.1,1109.2 1369,1132.9 		"/>
	</g>
	<g>
		<polygon class="st4" points="378,764.8 419.1,788.5 378,812.3 		"/>
		<polygon class="st4" points="418,741 459.1,764.8 418,788.6 		"/>
		<polygon class="st4" points="418,788.6 376.9,764.8 418,741 		"/>
	</g>
	<g>
		<polygon class="st4" points="822,992.9 863.1,1016.6 822,1040.4 		"/>
		<polygon class="st4" points="863,969.1 904.1,992.9 863,1016.6 		"/>
		<polygon class="st4" points="863,1016.6 821.9,992.9 863,969.1 		"/>
	</g>
	<polygon class="st4" points="528,658.7 569.1,682.5 528,706.2 	"/>
	<polygon class="st4" points="305,323.9 346.1,347.7 305,371.4 	"/>
	<polygon class="st4" points="658,707.9 616.9,731.6 658,755.4 	"/>
	<polygon class="st4" points="822,423.7 780.9,447.4 822,471.2 	"/>
	<polygon class="st4" points="863,447.4 821.9,471.1 863,494.9 	"/>
	<g>
		<polygon class="st4" points="357,935 398.1,958.7 357,982.5 		"/>
		<polygon class="st4" points="357,982.5 315.9,958.7 357,935 		"/>
	</g>
	<polygon class="st4" points="945,495.1 903.9,518.9 945,542.6 	"/>
	<polygon class="st4" points="657,565.3 615.9,541.6 657,517.8 	"/>
	<polygon class="st4" points="616,494.1 657.1,517.9 616,541.6 	"/>
	<polygon class="st4" points="564,612.3 522.9,588.6 564,564.8 	"/>
	<polygon class="st4" points="524,541.1 565.1,564.9 524,588.6 	"/>
	<polygon class="st4" points="658,613.7 616.9,637.4 658,661.1 	"/>
	<polygon class="st4" points="617,590 658.1,613.7 617,637.5 	"/>
	<polygon class="st4" points="617,684.2 658.1,707.9 617,731.7 	"/>
	<polygon class="st4" points="698,1014.9 656.9,1038.6 698,1062.4 	"/>
	<polygon class="st4" points="657,991.2 698.1,1014.9 657,1038.7 	"/>
	<polygon class="st4" points="658,707.9 616.9,684.2 658,660.4 	"/>
	<polygon class="st4" points="617,636.7 658.1,660.5 617,684.2 	"/>
	<polygon class="st4" points="617,824.8 658.1,848.5 617,872.3 	"/>
	<polygon class="st4" points="657,896 615.9,872.2 657,848.5 	"/>
	<g>
		<polygon class="st4" points="569,730 527.9,706.2 569,682.5 		"/>
	</g>
	<polygon class="st4" points="1126.2,1199.6 1162.6,1169.1 1170.8,1215.9 	"/>
	<g>
		<polygon class="st4" points="1207.1,1185.5 1170.7,1216 1162.5,1169.2 		"/>
	</g>
	<polygon class="st4" points="2114.2,159.6 2150.6,129.1 2158.8,175.9 	"/>
	<g>
		<polygon class="st4" points="2195.1,145.5 2158.7,176 2150.5,129.2 		"/>
	</g>
	<polygon class="st4" points="905,754.8 863.9,731 905,707.3 	"/>
	<polygon class="st4" points="905,707.3 946.1,731 905,754.8 	"/>
	<polygon class="st4" points="946,778.5 904.9,754.7 946,731 	"/>
	<polygon class="st4" points="781,400 822.1,423.7 781,447.5 	"/>
	<polygon class="st4" points="1115,660.5 1073.9,636.7 1115,613 	"/>
	<polygon class="st4" points="1115,613 1156.1,636.7 1115,660.5 	"/>
	<g>
		<polygon class="st4" points="1146.8,853.4 1193.1,863.9 1160.8,898.8 		"/>
		<polygon class="st4" points="1132.8,808.1 1179.1,818.6 1146.8,853.4 		"/>
		<polygon class="st4" points="1193.2,864 1146.9,853.4 1179.1,818.6 		"/>
		<polygon class="st4" points="1160.8,898.8 1114.5,888.2 1146.8,853.4 		"/>
	</g>
</g>
<g id="Layer_4">
	<polygon class="st5" points="698,967.1 656.9,943.4 698,919.6 	"/>
	<polygon class="st5" points="987,849.6 945.9,825.9 987,802.1 	"/>
	<polygon class="st5" points="960,550.3 1001.1,574 960,597.8 	"/>
	<polygon class="st5" points="657,801 698.1,824.8 657,848.5 	"/>
	<polygon class="st5" points="657,943.3 698.1,967.1 657,990.8 	"/>
	<polygon class="st5" points="657,848.5 698.1,872.2 657,896 	"/>
	<polygon class="st5" points="698,872.3 656.9,848.5 698,824.8 	"/>
	<polygon class="st5" points="657,990.8 615.9,967.1 657,943.3 	"/>
	<polygon class="st5" points="986,659.9 944.9,636.2 986,612.4 	"/>
	<polygon class="st5" points="987,566 945.9,542.3 987,518.5 	"/>
	<polygon class="st5" points="1001,621.5 959.9,597.7 1001,574 	"/>
	<g>
		<polygon class="st5" points="119,994.9 160.1,1018.7 119,1042.5 		"/>
		<polygon class="st5" points="160,1066.2 118.9,1042.4 160,1018.7 		"/>
	</g>
	<g>
		<polygon class="st5" points="1369,367.9 1410.1,391.7 1369,415.5 		"/>
		<polygon class="st5" points="1410,439.2 1368.9,415.4 1410,391.7 		"/>
	</g>
	<polygon class="st5" points="946,825.8 987.1,849.6 946,873.3 	"/>
	<polygon class="st5" points="945,588.7 986.1,612.4 945,636.2 	"/>
	<g>
		<polygon class="st5" points="699,400 740.1,423.7 699,447.5 		"/>
		<polygon class="st5" points="699,352.5 740.1,376.3 699,400 		"/>
		<polygon class="st5" points="740,423.7 698.9,400 740,376.2 		"/>
	</g>
	<polygon class="st5" points="698,824.8 656.9,801.1 698,777.3 	"/>
	<polygon class="st5" points="699,731.3 657.9,755 699,778.8 	"/>
	<polygon class="st5" points="658,755.1 699.1,731.3 658,707.6 	"/>
	<g>
		<polygon class="st5" points="657,753.6 698.1,777.4 657,801.1 		"/>
	</g>
	<polygon class="st5" points="549,356 590.1,379.8 549,403.5 	"/>
	<polygon class="st5" points="549,403.5 507.9,379.8 549,356 	"/>
	<polygon class="st5" points="1156,684.2 1114.9,660.4 1156,636.7 	"/>
	<polygon class="st5" points="1115,660.4 1156.1,684.2 1115,707.9 	"/>
	<polygon class="st5" points="740,471.2 698.9,447.4 740,423.7 	"/>
	<g>
		<polygon class="st5" points="739,1038.3 697.9,1014.5 739,990.8 		"/>
		<polygon class="st5" points="698,1014.5 739.1,1038.2 698,1062 		"/>
	</g>
	<g>
		<polygon class="st5" points="822,1040.4 780.9,1016.6 822,992.9 		"/>
		<polygon class="st5" points="781,1016.6 822.1,1040.3 781,1064.1 		"/>
	</g>
	<g>
		<polygon class="st5" points="1035,1157.4 993.9,1133.6 1035,1109.9 		"/>
		<polygon class="st5" points="993,1133.6 1034.1,1157.3 993,1181.1 		"/>
	</g>
	<g>
		<polygon class="st5" points="548.4,1093.7 589.7,1070.2 589.4,1117.7 		"/>
		<polygon class="st5" points="507.5,1069.8 548.7,1046.3 548.5,1093.8 		"/>
		<polygon class="st5" points="589.7,1070.2 548.4,1093.7 548.7,1046.2 		"/>
		<polygon class="st5" points="589.4,1117.7 548.1,1141.2 548.4,1093.7 		"/>
	</g>
	<g>
		<polygon class="st5" points="987,897.1 945.9,873.3 987,849.6 		"/>
		<polygon class="st5" points="987,944.5 945.9,920.7 987,897 		"/>
		<polygon class="st5" points="946,873.3 987.1,897 946,920.8 		"/>
	</g>
	<polygon class="st5" points="249.9,424.5 296.3,435 264,469.8 	"/>
	<polygon class="st5" points="1245.3,1110 1205.1,1135.3 1203.3,1087.8 	"/>
	<polygon class="st5" points="1329.4,969.5 1283.1,959 1315.4,924.1 	"/>
	<polygon class="st5" points="1837.4,460.5 1791.1,450 1823.4,415.1 	"/>
	<polygon class="st5" points="1860.4,1191.5 1814.1,1181 1846.4,1146.1 	"/>
	<polygon class="st5" points="987,802.2 945.9,778.4 987,754.7 	"/>
	<polygon class="st5" points="946,778.4 987.1,802.2 946,825.9 	"/>
</g>
</svg>
